<svg width="66" height="50" viewBox="0 0 66 50" fill="none" xmlns="http://www.w3.org/2000/svg">
<path d="M33 0.25C19.25 0.25 8.25 11.25 8.25 25C8.25 38.75 19.25 49.75 33 49.75C46.75 49.75 57.75 38.75 57.75 25C57.75 11.25 46.75 0.25 33 0.25ZM33 44.25C22.275 44.25 13.75 35.725 13.75 25C13.75 14.275 22.275 5.75 33 5.75C43.725 5.75 52.25 14.275 52.25 25C52.25 35.725 43.725 44.25 33 44.25ZM56.375 48.375C62.425 42.325 66 34.075 66 25C66 15.925 62.425 7.675 56.375 1.625L53.35 4.65C58.575 9.875 61.875 17.025 61.875 25C61.875 32.975 58.575 40.125 53.35 45.35L56.375 48.375ZM12.65 45.35C7.425 40.125 4.125 32.975 4.125 25C4.125 17.025 7.425 9.875 12.65 4.65L9.625 1.625C3.575 7.675 0 15.925 0 25C0 34.075 3.575 42.325 9.625 48.375L12.65 45.35ZM26.125 11.25V38.75H31.625V27.75H37.125C38.5837 27.75 39.9826 27.1705 41.0141 26.1391C42.0455 25.1076 42.625 23.7087 42.625 22.25V16.75C42.625 15.2913 42.0455 13.8924 41.0141 12.8609C39.9826 11.8295 38.5837 11.25 37.125 11.25H26.125ZM31.625 16.75H37.125V22.25H31.625V16.75Z" fill="#FAB54E"/>
</svg>
