<svg width="63" height="57" viewBox="0 0 63 57" fill="none" xmlns="http://www.w3.org/2000/svg">
<path d="M50.25 0.375H12.75C5.84375 0.375 0.25 5.96875 0.25 12.875C0.25 17.5 2.78125 21.4687 6.5 23.6562V50.375C6.5 53.8125 9.3125 56.625 12.75 56.625H50.25C53.6875 56.625 56.5 53.8125 56.5 50.375V23.6562C60.2188 21.5 62.75 17.5 62.75 12.875C62.75 5.96875 57.1563 0.375 50.25 0.375V0.375ZM53.375 18.25L50.25 20.0625V50.375H12.75V20.0938L9.65625 18.2812C7.6875 17.0937 6.5 15.0937 6.5 12.875C6.5 9.4375 9.3125 6.625 12.75 6.625H50.25C53.6875 6.625 56.5 9.4375 56.5 12.875C56.5 15.0937 55.3125 17.125 53.375 18.25V18.25Z" fill="white"/>
<path d="M33.7186 20.0312C33.0936 19.4375 32.3123 19.125 31.4998 19.125C30.6873 19.125 29.9061 19.4375 29.2811 20.0312L19.9061 29.4062C19.6164 29.6954 19.3865 30.0388 19.2297 30.4168C19.0729 30.7948 18.9922 31.2001 18.9922 31.6094C18.9922 32.0187 19.0729 32.4239 19.2297 32.802C19.3865 33.18 19.6164 33.5234 19.9061 33.8125L29.2811 43.1875C29.9061 43.8125 30.6873 44.125 31.4998 44.125C32.3123 44.125 33.0936 43.8125 33.7186 43.2187L43.0936 33.8438C43.3833 33.5546 43.6131 33.2112 43.7699 32.8332C43.9267 32.4552 44.0075 32.0499 44.0075 31.6406C44.0075 31.2313 43.9267 30.8261 43.7699 30.448C43.6131 30.07 43.3833 29.7266 43.0936 29.4375L33.7186 20.0312V20.0312ZM31.4998 36.5625L26.5311 31.625L31.4998 26.6562L36.4686 31.625L31.4998 36.5625Z" fill="white"/>
</svg>
